<svg width="68" height="77" viewBox="0 0 68 77" fill="none" xmlns="http://www.w3.org/2000/svg">
<rect width="68" height="77" fill="white"/>
<rect x="8" y="8" width="52" height="61" rx="3" fill="white" stroke="#C4C4C4" stroke-width="2"/>
<path d="M47 21.104C47 22.0466 45.6731 23.0709 43.451 23.8468C40.9388 24.7247 37.5808 25.2079 34 25.2079C30.4192 25.2079 27.0612 24.7247 24.549 23.8468C22.3269 23.0709 21 22.0466 21 21.104C21 20.1613 22.3269 19.1371 24.549 18.3612C27.0612 17.4832 30.4192 17 34 17C37.5808 17 40.9388 17.4832 43.451 18.3612C45.6731 19.1371 47 20.1613 47 21.104Z" fill="#A1A1A1"/>
<path d="M47 23.5541V28.0324C47 28.975 45.6731 29.9993 43.451 30.7752C40.9388 31.6531 37.5808 32.1364 34 32.1364C30.4192 32.1364 27.0612 31.6531 24.549 30.7752C22.3269 29.9993 21 28.975 21 28.0324V23.5541C21.138 23.6664 21.2901 23.7719 21.4494 23.8774C21.5024 23.9148 21.5591 23.9489 21.6157 23.9863C21.6758 24.0237 21.7395 24.0646 21.8032 24.102C21.8315 24.119 21.8598 24.136 21.8881 24.153C21.9412 24.1837 21.9978 24.2143 22.0509 24.2449C22.0721 24.2585 22.0969 24.2687 22.1181 24.2823C22.157 24.3028 22.196 24.3232 22.2349 24.3436C22.2597 24.3572 22.288 24.3708 22.3127 24.3844C22.3517 24.4048 22.3906 24.4253 22.4295 24.4423C22.4613 24.4593 22.4932 24.4729 22.5215 24.4899C22.5427 24.5001 22.5675 24.5137 22.5887 24.524C22.6135 24.5342 22.6347 24.5444 22.6595 24.558C22.7586 24.6056 22.8612 24.6499 22.9638 24.6941C22.9886 24.7043 23.0133 24.7145 23.0346 24.7247C23.0947 24.7519 23.1584 24.7792 23.2221 24.803C23.261 24.82 23.2999 24.8336 23.3353 24.8506C23.3743 24.8676 23.4132 24.8813 23.4521 24.8983C23.491 24.9153 23.5299 24.9289 23.5689 24.9459C23.6042 24.9595 23.6432 24.9731 23.6786 24.9868C23.721 25.0038 23.767 25.0208 23.8095 25.0344C23.8909 25.065 23.9722 25.0956 24.0572 25.1229C26.7286 26.0553 30.2599 26.5657 34 26.5657C37.7401 26.5657 41.2714 26.0553 43.9358 25.1229C44.0207 25.0922 44.1021 25.065 44.1834 25.0344C44.2294 25.0174 44.2719 25.0038 44.3144 24.9868C44.3498 24.9731 44.3887 24.9595 44.4241 24.9459C44.463 24.9289 44.5019 24.9153 44.5408 24.8983C44.5797 24.8813 44.6187 24.8676 44.6576 24.8506C44.6965 24.8336 44.7354 24.82 44.7708 24.803C44.8345 24.7758 44.8947 24.7519 44.9584 24.7247C44.9831 24.7145 45.0079 24.7043 45.0291 24.6941C45.1317 24.6499 45.2343 24.6022 45.3334 24.558C45.3582 24.5478 45.3794 24.5376 45.4042 24.524C45.4254 24.5137 45.4502 24.5035 45.4714 24.4899C45.5033 24.4729 45.5351 24.4593 45.5634 24.4423C45.6023 24.4219 45.6413 24.4014 45.6802 24.3844C45.7085 24.3708 45.7333 24.3572 45.758 24.3436C45.7969 24.3232 45.8359 24.3028 45.8748 24.2823C45.8996 24.2687 45.9208 24.2585 45.942 24.2449C45.9986 24.2143 46.0517 24.1837 46.1048 24.153C46.1331 24.136 46.1614 24.119 46.1897 24.102C46.2534 24.0646 46.3171 24.0271 46.3772 23.9863C46.4339 23.9523 46.4869 23.9148 46.5435 23.8774C46.7099 23.7753 46.862 23.6664 47 23.5541Z" fill="#A1A1A1"/>
<path d="M47 30.4859V34.9642C47 35.9068 45.6731 36.9311 43.451 37.707C40.9388 38.585 37.5808 39.0682 34 39.0682C30.4192 39.0682 27.0612 38.585 24.549 37.707C22.3269 36.9311 21 35.9068 21 34.9642V30.4859C21.7501 31.078 22.7798 31.6055 24.0642 32.0547C26.7286 32.9837 30.2564 33.4941 34 33.4941C37.7436 33.4941 41.2714 32.9837 43.9358 32.0547C45.2202 31.6055 46.2534 31.078 47 30.4859Z" fill="#A1A1A1"/>
<path d="M21 41.896V37.4177C21.7501 38.0099 22.7798 38.5373 24.0642 38.9865C26.7286 39.9155 30.2564 40.4294 34 40.4294C37.7436 40.4294 41.2714 39.9189 43.9358 38.9865C45.2237 38.5373 46.2534 38.0099 47 37.4177V41.896C47 42.8387 45.6731 43.8629 43.451 44.6388C40.9388 45.5168 37.5808 46 34 46C30.4192 46 27.0612 45.5168 24.549 44.6388C22.3269 43.8629 21 42.8387 21 41.896Z" fill="#A1A1A1"/>
<rect x="13" y="55" width="42" height="3" fill="#C4C4C4"/>
<rect x="13" y="61" width="42" height="3" fill="#C4C4C4"/>
</svg>
